:FULLY-SPECIFIED
:FORCE-ALL-JOINTS-BE-3DOF
:DEGREES
2956
root -5.84908 13.3032 -28.9133 1231.75 -69.7549 -148.322
lfemur -66.7404 39.6658 -5.44366
ltibia 72.2098 0 0
lfoot -6.37073 -3.07214 0
ltoes -38.7896 0 0
rfemur -34.036 -16.8131 24.1293
rtibia 89.0719 0 0
rfoot -39.9196 -31.0634 0
rtoes -12.6131 0 0
lowerback 16.2164 5.46516 1.44632
upperback -4.26338 7.82638 1.28355
thorax -13.8915 3.56449 -1.54274
lowerneck -2.72878 8.77339 1.19358
upperneck 7.53263 11.4913 1.76237
head 2.85514 5.78877 0.776408
lclavicle -6.86823e-14 -6.93037e-15 0
lhumerus 5.95793 14.3128 82.9304
lradius 90.8611 0 0
lwrist -16.185 0 0
lhand -38.4223 390.942 0
lfingers 7.12502 0 0
lthumb -11.445 -659.429 0
rclavicle -6.86823e-14 -6.93037e-15 0
rhumerus -51.9765 46.0861 -106.692
rradius 111.749 0 0
rwrist -80.76 0 0
rhand 5.01482 -385.891 0
rfingers 7.12502 0 0
rthumb 30.3623 306.814 0
2957
root -5.80866 13.3353 -28.9438 1229.8 -70.4281 -146.257
lfemur -66.5574 38.7203 -5.24345
ltibia 70.9699 0 0
lfoot -6.01267 -2.98125 0
ltoes -38.8047 0 0
rfemur -34.0912 -16.5591 24.4259
rtibia 88.7717 0 0
rfoot -39.7594 -31.2487 0
rtoes -12.3508 0 0
lowerback 16.2333 5.48165 1.44855
upperback -4.21937 7.84177 1.24326
thorax -13.845 3.5719 -1.58979
lowerneck -2.69527 8.62504 1.07329
upperneck 7.32136 11.3033 1.7449
head 2.77034 5.69389 0.778702
lclavicle -6.51748e-14 -6.88249e-15 0
lhumerus 6.00051 14.3409 82.8264
lradius 90.8223 0 0
lwrist -15.6466 0 0
lhand -38.1066 390.907 0
lfingers 7.12502 0 0
lthumb -11.1402 -659.454 0
rclavicle -6.51748e-14 -6.88249e-15 0
rhumerus -50.6576 45.1138 -105.753
rradius 111.5 0 0
rwrist -80.3998 0 0
rhand 4.40465 -385.969 0
rfingers 7.12502 0 0
rthumb 29.7771 306.663 0
2958
root -5.76649 13.369 -28.9754 1227.77 -71.1373 -144.099
lfemur -66.3657 37.7313 -5.0328
ltibia 69.6675 0 0
lfoot -5.63561 -2.88894 0
ltoes -38.8153 0 0
rfemur -34.1474 -16.2943 24.7364
rtibia 88.4572 0 0
rfoot -39.593 -31.4419 0
rtoes -12.0749 0 0
lowerback 16.2511 5.49948 1.45107
upperback -4.17363 7.8587 1.20109
thorax -13.7968 3.58002 -1.63939
lowerneck -2.66042 8.47068 0.948424
upperneck 7.10126 11.1076 1.72619
head 2.6818 5.59521 0.780822
lclavicle -6.12177e-14 -6.79501e-15 0
lhumerus 6.04254 14.3721 82.7183
lradius 90.7843 0 0
lwrist -15.0827 0 0
lhand -37.7764 390.871 0
lfingers 7.12502 0 0
lthumb -10.8215 -659.479 0
rclavicle -6.12177e-14 -6.79501e-15 0
rhumerus -49.2816 44.0953 -104.773
rradius 111.241 0 0
rwrist -80.0244 0 0
rhand 3.76544 -386.05 0
rfingers 7.12502 0 0
rthumb 29.1641 306.504 0
2959
root -5.72269 13.404 -29.0082 1225.65 -71.8773 -141.856
lfemur -66.1657 36.7026 -4.81302
ltibia 68.3104 0 0
lfoot -5.24153 -2.795 0
ltoes -38.8212 0 0
rfemur -34.2044 -16.0197 25.0594
rtibia 88.1294 0 0
rfoot -39.4205 -31.642 0
rtoes -11.7866 0 0
lowerback 16.2698 5.51839 1.45374
upperback -4.12625 7.87679 1.15724
thorax -13.747 3.58869 -1.69114
lowerneck -2.62414 8.31041 0.819131
upperneck 6.87303 10.9045 1.70667
head 2.58987 5.49276 0.782923
lclavicle -5.68503e-14 -6.67023e-15 0
lhumerus 6.0851 14.4045 82.6065
lradius 90.7463 0 0
lwrist -14.4958 0 0
lhand -37.4331 390.833 0
lfingers 7.12502 0 0
lthumb -10.4903 -659.505 0
rclavicle -5.68503e-14 -6.67023e-15 0
rhumerus -47.8518 43.0353 -103.753
rradius 110.972 0 0
rwrist -79.6349 0 0
rhand 3.10014 -386.135 0
rfingers 7.12502 0 0
rthumb 28.526 306.339 0
2960
root -5.67738 13.4404 -29.0421 1223.46 -72.6425 -139.533
lfemur -65.958 35.6382 -4.58541
ltibia 66.9061 0 0
lfoot -4.83241 -2.6992 0
ltoes -38.822 0 0
rfemur -34.2624 -15.736 25.3937
rtibia 87.789 0 0
rfoot -39.242 -31.8482 0
rtoes -11.4875 0 0
lowerback 16.2891 5.53808 1.45643
upperback -4.07737 7.8957 1.11195
thorax -13.6957 3.59775 -1.74462
lowerneck -2.58633 8.14435 0.68554
upperneck 6.63736 10.694 1.68677
head 2.4949 5.38658 0.785161
lclavicle -5.21116e-14 -6.51047e-15 0
lhumerus 6.12926 14.4365 82.4914
lradius 90.7072 0 0
lwrist -13.8886 0 0
lhand -37.0782 390.793 0
lfingers 7.12502 0 0
lthumb -10.1478 -659.532 0
rclavicle -5.21116e-14 -6.51047e-15 0
rhumerus -46.3716 41.9388 -102.698
rradius 110.693 0 0
rwrist -79.2321 0 0
rhand 2.41168 -386.223 0
rfingers 7.12502 0 0
rthumb 27.8657 306.168 0
2961
root -5.63067 13.4779 -29.0772 1221.2 -73.4275 -137.138
lfemur -65.7429 34.5422 -4.35129
ltibia 65.4621 0 0
lfoot -4.41024 -2.60132 0
ltoes -38.8175 0 0
rfemur -34.3213 -15.4443 25.7377
rtibia 87.437 0 0
rfoot -39.0579 -32.0594 0
rtoes -11.1787 0 0
lowerback 16.3089 5.55828 1.45901
upperback -4.02708 7.91505 1.06544
thorax -13.6428 3.60703 -1.79942
lowerneck -2.54691 7.97261 0.547784
upperneck 6.39494 10.4762 1.66691
head 2.39723 5.27672 0.787691
lclavicle -4.70409e-14 -6.31801e-15 0
lhumerus 6.1761 14.4662 82.3732
lradius 90.6661 0 0
lwrist -13.2636 0 0
lhand -36.7131 390.753 0
lfingers 7.12502 0 0
lthumb -9.79535 -659.561 0
rclavicle -4.70409e-14 -6.31801e-15 0
rhumerus -44.8443 40.8104 -101.61
rradius 110.405 0 0
rwrist -78.817 0 0
rhand 1.703 -386.314 0
rfingers 7.12502 0 0
rthumb 27.1861 305.991 0
2962
root -5.58268 13.5166 -29.1136 1218.88 -74.2269 -134.675
lfemur -65.521 33.4185 -4.11196
ltibia 63.9862 0 0
lfoot -3.97699 -2.50115 0
ltoes -38.8074 0 0
rfemur -34.3811 -15.1453 26.0903
rtibia 87.0742 0 0
rfoot -38.8681 -32.2746 0
rtoes -10.8617 0 0
lowerback 16.329 5.57872 1.46134
upperback -3.97552 7.9345 1.01792
thorax -13.5886 3.61638 -1.85516
lowerneck -2.50579 7.79528 0.405994
upperneck 6.14646 10.2511 1.64751
head 2.29721 5.16323 0.790667
lclavicle -4.16774e-14 -6.09516e-15 0
lhumerus 6.2267 14.4919 82.2524
lradius 90.6219 0 0
lwrist -12.6234 0 0
lhand -36.3391 390.711 0
lfingers 7.12502 0 0
lthumb -9.4344 -659.59 0
rclavicle -4.16774e-14 -6.09516e-15 0
rhumerus -43.2734 39.655 -100.492
rradius 110.109 0 0
rwrist -78.3905 0 0
rhand 0.977029 -386.407 0
rfingers 7.12502 0 0
rthumb 26.4898 305.81 0
2963
root -5.53353 13.5562 -29.1511 1216.5 -75.0352 -132.151
lfemur -65.2926 32.271 -3.86873
ltibia 62.4857 0 0
lfoot -3.53467 -2.39846 0
ltoes -38.7914 0 0
rfemur -34.4418 -14.8398 26.45
rtibia 86.7015 0 0
rfoot -38.6729 -32.4929 0
rtoes -10.5378 0 0
lowerback 16.3492 5.59912 1.46329
upperback -3.92278 7.95367 0.969627
thorax -13.5329 3.62563 -1.91141
lowerneck -2.46289 7.6125 0.260304
upperneck 5.89261 10.0188 1.62899
head 2.19517 5.04613 0.794244
lclavicle -3.60602e-14 -5.84423e-15 0
lhumerus 6.28215 14.5118 82.1293
lradius 90.5738 0 0
lwrist -11.9705 0 0
lhand -35.9576 390.669 0
lfingers 7.12502 0 0
lthumb -9.06625 -659.619 0
rclavicle -3.60602e-14 -5.84423e-15 0
rhumerus -41.6621 38.4773 -99.3467
rradius 109.805 0 0
rwrist -77.9536 0 0
rhand 0.236715 -386.503 0
rfingers 7.12502 0 0
rthumb 25.7798 305.625 0
2964
root -5.48332 13.5967 -29.1899 1214.06 -75.8469 -129.574
lfemur -65.0582 31.1037 -3.62291
ltibia 60.9684 0 0
lfoot -3.08523 -2.29303 0
ltoes -38.7694 0 0
rfemur -34.5033 -14.5289 26.8155
rtibia 86.3197 0 0
rfoot -38.4724 -32.7132 0
rtoes -10.2083 0 0
lowerback 16.3693 5.61919 1.46473
upperback -3.86899 7.9722 0.920772
thorax -13.476 3.63461 -1.96777
lowerneck -2.41811 7.42436 0.110846
upperneck 5.63408 9.77952 1.61178
head 2.09147 4.92547 0.798578
lclavicle -3.02284e-14 -5.56751e-15 0
lhumerus 6.34351 14.5243 82.0041
lradius 90.5206 0 0
lwrist -11.3076 0 0
lhand -35.5701 390.625 0
lfingers 7.12502 0 0
lthumb -8.69222 -659.649 0
rclavicle -3.02284e-14 -5.56751e-15 0
rhumerus -40.0139 37.2821 -98.1768
rradius 109.494 0 0
rwrist -77.5072 0 0
rhand -0.515009 -386.601 0
rfingers 7.12502 0 0
rthumb 25.0589 305.436 0
2965
root -5.43217 13.638 -29.23 1211.59 -76.6567 -126.948
lfemur -64.8183 29.9206 -3.37581
ltibia 59.4419 0 0
lfoot -2.63068 -2.18464 0
ltoes -38.7409 0 0
rfemur -34.5658 -14.2134 27.1855
rtibia 85.9296 0 0
rfoot -38.2668 -32.9347 0
rtoes -9.8745 0 0
lowerback 16.3892 5.63867 1.46552
upperback -3.81425 7.98974 0.871581
thorax -13.4178 3.64318 -2.02385
lowerneck -2.37138 7.23097 -0.0422473
upperneck 5.37157 9.53323 1.5963
head 1.98645 4.8013 0.803824
lclavicle -2.42213e-14 -5.26731e-15 0
lhumerus 6.41187 14.5274 81.8774
lradius 90.4615 0 0
lwrist -10.6372 0 0
lhand -35.1779 390.582 0
lfingers 7.12502 0 0
lthumb -8.31367 -659.679 0
rclavicle -2.42213e-14 -5.26731e-15 0
rhumerus -38.3321 36.0742 -96.9854
rradius 109.175 0 0
rwrist -77.0522 0 0
rhand -1.2752 -386.7 0
rfingers 7.12502 0 0
rthumb 24.3298 305.245 0
